<?xml version="1.0" standalone="no"?><svg xmlns="http://www.w3.org/2000/svg" viewBox="0 0 1440 320"><path fill="#3d84b8" fill-opacity="1" d="M0,160L40,176C80,192,160,224,240,218.7C320,213,400,171,480,133.3C560,96,640,64,720,80C800,96,880,160,960,208C1040,256,1120,288,1200,266.7C1280,245,1360,171,1400,133.3L1440,96L1440,320L1400,320C1360,320,1280,320,1200,320C1120,320,1040,320,960,320C880,320,800,320,720,320C640,320,560,320,480,320C400,320,320,320,240,320C160,320,80,320,40,320L0,320Z"></path></svg>